<?xml version="1.0" encoding="UTF-8"?>
<svg id="Layer_1" data-name="Layer 1" xmlns="http://www.w3.org/2000/svg" viewBox="0 0 789.65 145.2">
  <defs>
    <style>
      .cls-1 {
        fill: #98989a;
      }
    </style>
  </defs>
  <polygon class="cls-1" points="0 110.65 0 110.65 0 2.76 0 2.76 17.96 2.76 17.96 2.76 17.96 110.65 17.96 110.65 0 110.65"/>
  <path class="cls-1" d="M612.93,112.6c-10.13,0-19.4-2.42-27.56-7.2-8.17-4.78-14.68-11.51-19.35-20-4.65-8.43-7-18.13-7-28.84s2.35-20.21,7-28.64c4.67-8.48,11.18-15.21,19.35-20,8.17-4.78,17.44-7.2,27.56-7.2s19.59,2.42,27.75,7.2c8.18,4.79,14.66,11.53,19.27,20.02,4.57,8.44,6.89,18.07,6.89,28.62s-2.32,20.38-6.89,28.82c-4.61,8.5-11.09,15.23-19.27,20.02-8.15,4.78-17.49,7.2-27.75,7.2ZM612.93,19.09c-6.91,0-13.15,1.59-18.56,4.72-5.38,3.11-9.67,7.55-12.76,13.19-3.12,5.7-4.7,12.28-4.7,19.57s1.58,14.11,4.71,19.87c3.09,5.69,7.38,10.16,12.75,13.27,5.41,3.13,11.65,4.72,18.56,4.72s13.2-1.59,18.67-4.73c5.42-3.1,9.7-7.55,12.72-13.23,3.07-5.77,4.63-12.46,4.63-19.9s-1.56-13.9-4.62-19.6c-3.02-5.62-7.31-10.05-12.73-13.15-5.47-3.14-11.76-4.73-18.67-4.73Z"/>
  <path class="cls-1" d="M789.65,110.65h-17.96l.28-66.23-.1-1.61c-.69-7.51-1.91-12.99-5.81-16.89-4.92-4.92-12-7.42-21.05-7.42-10.16.23-18.39,3.35-24.42,9.26-4.42,4.34-7,10.26-8.61,19.78v62.89h-17.92V2.52h17.95l-.02,13.12c2.09-2.09,4.56-4.01,7.43-5.81,7.54-4.7,16.76-7.23,27.4-7.5h0c13.28,0,23.83,3.92,31.42,11.65,6.99,7.12,10.83,16.64,11.4,28.29v68.39h0Z"/>
  <path class="cls-1" d="M144.71,84.66c4.57-8.44,6.89-18.13,6.89-28.82s-2.32-20.18-6.89-28.62c-4.61-8.49-11.09-15.23-19.27-20.02-8.16-4.78-17.5-7.2-27.75-7.2s-19.4,2.42-27.56,7.2c-8.17,4.79-14.68,11.51-19.35,20-4.65,8.44-7,18.07-7,28.64s2.35,20.41,7,28.84c4.67,8.48,11.18,15.21,19.35,20,8.16,4.78,17.43,7.2,27.56,7.2,7.39,0,14.27-1.31,20.6-3.81l-5.56-17.31c-4.57,1.94-9.6,2.94-15.04,2.94-6.91,0-13.16-1.59-18.56-4.72-5.37-3.11-9.66-7.58-12.75-13.27-3.12-5.76-4.71-12.45-4.71-19.87s1.58-13.88,4.7-19.57c3.09-5.64,7.38-10.08,12.76-13.19,5.41-3.13,11.66-4.72,18.56-4.72s13.19,1.59,18.67,4.73c5.42,3.11,9.7,7.53,12.73,13.15,3.07,5.7,4.62,12.3,4.62,19.6,0,3.77-.4,7.34-1.2,10.7l-.37-1.15h-19.14l14.35,44.65h19.14l-6.04-18.79c1.55-2.07,2.99-4.26,4.26-6.61Z"/>
  <polygon class="cls-1" points="248.7 2.76 215.93 91.69 184.66 2.76 166.79 2.76 206.95 110.65 224.91 110.65 266.58 2.76 248.7 2.76"/>
  <path class="cls-1" d="M426.94,15.94V2.76h-84.69v17.25h59.2l-59.9,74.45c-.58.72-.9,1.62-.9,2.55v13.45l89.47.2v-17.81l-64.05-.08,59.95-74.28c.58-.72.9-1.63.9-2.55Z"/>
  <g>
    <rect class="cls-1" x="290.03" y="2.76" width="17.96" height="16.82"/>
    <rect class="cls-1" x="290.03" y="28" width="17.96" height="82.65"/>
  </g>
  <g>
    <path class="cls-1" d="M468.31,145.2c-.28,0,.29.01,0,0h0Z"/>
    <path class="cls-1" d="M532.79,2.76l-31.04,78.59L470.32,2.76h-17.93l39.24,103,.24,1.55c.31,2.02.24,4.06-.22,6.05l-.21.9c-.79,3.74-3.42,7.48-7.8,11.1-2.98,2.46-11.82,3.66-15.34,3.66-.28,0-.38,0-.37,0h-15.55v16.17h15.93c6.82,0,19.1-2.32,24.55-6.88,5.81-4.88,10.48-11.3,13.5-18.6L550.73,2.76h-17.94Z"/>
  </g>
</svg>