<?xml version="1.0" encoding="UTF-8"?>
<svg id="Layer_1" data-name="Layer 1" xmlns="http://www.w3.org/2000/svg" viewBox="0 0 1182 1182">
  <defs>
    <style>
      .cls-1 {
        fill: #416db5;
      }
    </style>
  </defs>
  <path class="cls-1" d="M591.07,5.53C267.94,5.53,6,267.48,6,590.61s261.94,585.08,585.08,585.08,585.08-261.94,585.08-585.08S914.21,5.53,591.07,5.53ZM915.1,949.91h-127.06l-95.3-296.48h127.06l2.47,7.66c5.27-22.33,7.94-46.06,7.94-71.07,0-48.48-10.32-92.27-30.68-130.14-20.08-37.32-48.52-66.7-84.52-87.32-36.35-20.83-78.04-31.39-123.94-31.39s-87.34,10.54-123.25,31.33c-35.73,20.68-64.23,50.13-84.71,87.56-20.71,37.84-31.2,81.56-31.2,129.96s10.52,93.66,31.25,131.92c20.49,37.82,48.97,67.46,84.66,88.11,35.9,20.78,77.37,31.32,123.26,31.32,36.08,0,69.51-6.61,99.83-19.52l36.93,114.92c-42.02,16.58-87.72,25.27-136.78,25.27-67.26,0-128.83-16.08-183-47.83-54.26-31.77-97.49-76.45-128.49-132.77-30.85-55.98-46.48-120.39-46.48-191.48s15.64-134.17,46.49-190.18c31.01-56.32,74.24-100.99,128.48-132.77,54.21-31.73,115.78-47.83,183-47.83s130.07,16.1,184.26,47.83c54.32,31.82,97.35,76.54,127.95,132.92,30.37,56.04,45.76,119.97,45.76,190.03s-15.4,135.32-45.76,191.33c-8.44,15.57-17.96,30.11-28.28,43.87l40.1,124.76Z"/>
</svg>